<?xml version="1.0" encoding="UTF-8"?>
<svg id="a" data-name="レイヤー 2" xmlns="http://www.w3.org/2000/svg" viewBox="0 0 1631.11 482.24">
  <defs>
    <style>
      .j, .k {
        stroke-width: 0px;
      }

      .k {
        fill: #fff;
      }
    </style>
  </defs>
  <g>
    <g>
      <path class="k" d="m546.78,90.1h18v46.35h52.5v-46.35h18v112.8h-18v-48.75h-52.5v48.75h-18v-112.8Z"/>
      <path class="k" d="m649.98,162.4c0-24.75,15-41.85,37.5-41.85s36,16.65,36,41.85v6.15h-55.05c1.65,10.95,9,18.45,20.1,18.45,8.4,0,15.45-4.05,19.5-11.85l14.25,8.55c-7.95,14.25-19.35,21-33.9,21-23.4,0-38.4-17.55-38.4-42.3Zm54.6-9.15c-1.05-9-7.65-15.15-16.95-15.15s-16.5,6.45-18.45,15.15h35.4Z"/>
      <path class="k" d="m738.63,89.5h18v113.4h-18v-113.4Z"/>
      <path class="k" d="m775.68,121.9h18.3v9c5.25-7.35,12.45-10.35,21-10.35,20.4,0,34.65,18,34.65,42.15s-14.7,42.15-34.65,42.15c-8.1,0-15.45-3-21-9.15v40.8h-18.3v-114.6Zm55.65,40.5c0-13.5-7.8-24-18.75-24s-18.45,10.35-18.45,23.4,7.65,24.6,18.6,24.6,18.6-10.35,18.6-24Z"/>
      <path class="k" d="m863.87,97.3c0-6.45,5.1-11.4,11.4-11.4s11.55,4.95,11.55,11.4-5.1,11.4-11.55,11.4-11.4-5.1-11.4-11.4Zm2.4,24.6h18v81h-18v-81Z"/>
      <path class="k" d="m904.97,121.9h18.15v9.45c7.5-7.65,16.2-10.8,25.5-10.8,17.1,0,29.4,11.25,29.4,31.05v51.15h-18v-47.4c0-11.55-6.3-16.95-15-16.95-9.6,0-18.45,6.15-21.9,17.4v46.95h-18.15v-80.85Z"/>
      <path class="k" d="m994.97,215.64l16.65-7.05c4.05,8.4,11.1,11.55,17.7,11.55,10.05,0,17.85-6.9,17.85-18v-10.65c-5.7,6.15-12.75,9-20.55,9-19.8,0-34.35-17.1-34.35-40.05s14.25-39.9,34.5-39.9c7.05,0,14.4,2.1,20.1,9.6v-8.25h18.3v79.95c0,23.1-15.6,36-36.3,36-15,0-27.3-6.75-33.9-22.2Zm51.9-55.35c0-12.6-7.65-21.9-18-21.9s-18.3,9.45-18.3,21.75,7.95,22.05,18.3,22.05,18-9.15,18-21.9Z"/>
      <path class="k" d="m1128.62,90.1h18v46.35h52.5v-46.35h18v112.8h-18v-48.75h-52.5v48.75h-18v-112.8Z"/>
      <path class="k" d="m1233.47,181.59c0-11.7,8.4-19.65,20.7-23.1,18.75-5.1,28.65-7.35,28.65-13.5,0-4.35-4.95-7.2-12.15-7.2-8.85,0-14.85,4.05-17.4,11.4l-16.65-6c4.5-14.4,16.95-22.65,34.2-22.65,19.35,0,31.2,10.65,31.2,29.4v32.7c0,4.5,3.45,6.75,7.95,5.25v15.45c-2.55.9-5.25,1.35-7.8,1.35-6.45,0-12.15-3.15-14.85-8.1-6.6,5.1-15.9,8.1-25.35,8.1-16.8,0-28.5-9.3-28.5-23.1Zm50.7-1.2v-16.05c-16.8,8.7-32.55,6.6-32.55,16.2,0,5.25,4.8,8.1,12,8.1,7.8,0,15.75-3.45,20.55-8.25Z"/>
      <path class="k" d="m1321.82,121.9h18.15v9.45c7.5-7.65,16.2-10.8,25.5-10.8,17.1,0,29.4,11.25,29.4,31.05v51.15h-18v-47.4c0-11.55-6.3-16.95-15-16.95-9.6,0-18.45,6.15-21.9,17.4v46.95h-18.15v-80.85Z"/>
      <path class="k" d="m1408.96,162.7c0-24.15,14.7-42.3,34.35-42.3,7.95,0,15.15,3,20.85,9.15v-40.05h18.3v113.4h-18.3v-8.7c-5.25,7.35-12.45,10.5-20.85,10.5-20.25,0-34.35-18-34.35-42Zm55.05.45c0-13.35-7.65-24.3-18.6-24.3s-18.15,10.5-18.15,24,7.35,24,18.3,24,18.45-10.2,18.45-23.7Z"/>
      <path class="k" d="m1496.56,181.29l16.35-4.95c3,8.25,9.75,12.15,19.2,12.15,8.1,0,13.65-3,13.65-7.2s-5.55-7.8-18.15-11.7c-20.1-6.6-28.95-15-28.95-26.55,0-13.8,12.6-22.65,30.75-22.65,17.1,0,28.65,7.8,33.9,22.65l-16.65,4.8c-3.15-7.35-8.4-10.65-17.1-10.65-7.95,0-12.6,2.55-12.6,6.9s4.35,7.05,16.8,10.65c20.7,6.3,29.7,13.95,29.7,26.1,0,14.7-12.6,23.85-31.8,23.85s-30.45-8.25-35.1-23.4Z"/>
    </g>
    <g>
      <path class="k" d="m538.83,262.85h10.2l35.55,100.35,35.4-100.35h10.2l-40.65,112.8h-9.75l-40.95-112.8Z"/>
      <path class="k" d="m641.13,262.85h45.75c21.45,0,36.15,12.6,36.15,30.9s-14.85,31.35-36.15,31.35h-36.6v50.55h-9.15v-112.8Zm45.6,53.4c16.2,0,26.85-8.85,26.85-22.5s-10.35-22.05-26.85-22.05h-36.45v44.55h36.45Z"/>
      <path class="k" d="m737.28,262.85h14.85l39.45,99.3,38.85-99.3h14.85v112.8h-9v-103.95l-40.65,103.95h-8.1l-41.25-103.65v103.65h-9v-112.8Z"/>
      <path class="k" d="m909.17,262.85h46.8c21.3,0,36.15,13.35,36.15,32.4,0,12.9-6.9,23.1-19.35,28.2,14.4,8.4,9.45,27.6,22.2,52.2h-10.5c-9.45-19.5-6.45-48.6-27.45-48.6h-38.85v48.6h-9v-112.8Zm46.5,55.35c16.05,0,27.15-9.75,27.15-23.55s-10.8-22.95-27.15-22.95h-37.5v46.5h37.5Z"/>
      <path class="k" d="m1006.67,335.14c0-24,13.8-41.85,35.25-41.85,19.95,0,33.6,16.05,33.6,37.2v5.55h-59.4c0,18.15,9.75,32.7,25.65,32.7,10.5,0,19.2-6.3,24.3-18.9l8.1,2.55c-5.7,16.8-17.7,25.05-32.4,25.05-22.05,0-35.1-19.05-35.1-42.3Zm59.1-9.15c-1.8-14.25-10.5-24.15-24-24.15-14.4,0-23.25,10.8-25.2,24.15h49.2Z"/>
      <path class="k" d="m1090.07,294.64h9.3v12.75c7.5-10.05,17.25-14.1,27.75-14.1,22.05,0,35.85,18.9,35.85,42s-14.4,42.15-35.85,42.15c-10.05,0-19.65-4.2-27.75-14.55v46.35h-9.3v-114.6Zm63.3,40.35c0-17.85-10.8-32.85-27.15-32.85s-26.85,14.7-26.85,31.35,10.8,34.5,27.15,34.5c15,0,26.85-14.4,26.85-33Z"/>
      <path class="k" d="m1172.42,335.44c0-24.15,18-42.15,41.4-42.15s41.4,18,41.4,42.15-18,42-41.4,42-41.4-17.85-41.4-42Zm73.2,0c0-18.9-14.25-33.3-31.8-33.3s-31.8,14.4-31.8,33.3,14.25,33.45,31.8,33.45,31.8-14.55,31.8-33.45Z"/>
      <path class="k" d="m1264.82,353.29l9.75-1.5c3.15,10.8,11.4,15.9,23.55,15.9,12.9,0,21.45-5.7,21.45-13.2,0-7.05-7.5-11.85-23.55-15.45-20.85-5.25-29.25-13.05-29.25-24.45,0-13.65,12-21.3,28.65-21.15,15.15,0,24.9,6.75,30,18.9l-9.3,2.55c-4.35-8.4-10.35-11.7-20.85-11.7-11.55,0-18.9,4.05-18.9,10.95s6.9,11.4,22.8,15c20.1,4.65,30,12.45,30,24.9,0,14.4-13.35,23.55-31.5,23.4-17.7,0-29.25-9-32.85-24.15Z"/>
      <path class="k" d="m1343.57,270.05c0-4.2,3.3-7.35,7.35-7.35s7.35,3.15,7.35,7.35-3.15,7.35-7.35,7.35-7.35-3.3-7.35-7.35Zm2.85,24.6h9v81h-9v-81Z"/>
      <path class="k" d="m1386.47,362.29v-59.1h-13.2v-8.55h13.2v-22.65h9v22.65h16.05v8.55h-16.05v59.4c0,4.8,3,5.85,7.35,5.85h9.45v8.4c-3,.3-7.05.6-10.05.6-11.25,0-15.75-4.2-15.75-15.15Z"/>
      <path class="k" d="m1422.47,335.44c0-24.15,18-42.15,41.4-42.15s41.4,18,41.4,42.15-18,42-41.4,42-41.4-17.85-41.4-42Zm73.2,0c0-18.9-14.25-33.3-31.8-33.3s-31.8,14.4-31.8,33.3,14.25,33.45,31.8,33.45,31.8-14.55,31.8-33.45Z"/>
      <path class="k" d="m1518.77,294.64h9v9.9c6.75-8.55,14.25-11.4,27-10.5v10.2c-16.5-1.35-27,7.65-27,23.25v48.15h-9v-81Z"/>
      <path class="k" d="m1567.52,400.99c9.15.3,12.45-1.2,15.75-9.6l6.45-16.2-30.45-80.55h10.05l25.5,67.2,24.15-67.2h9.9l-36.6,99.9c-4.95,13.35-10.95,16.8-24.75,16.05v-9.6Z"/>
    </g>
  </g>
  <g>
    <g id="b" data-name="Logo">
      <path class="j" d="m232.13,86.36l76.38,43.93c3,1.5,3,5.99,0,7.49l-90.86,52.42c-3,1.5-5.99,1.5-8.49,0l-90.36-52.42c-3-1.5-3-5.99,0-7.49l75.88-43.93V0L0,112.32v225.14-1,1l74.88-42.93v-88.36c0-3,3.49-5.49,6.49-3.49l90.86,52.42c3,1.5,4.49,4.49,4.49,7.49v104.83c0,3-3.49,5.49-6.49,3.49l-76.38-43.93-74.88,42.93,194.69,112.32,194.69-112.32-74.88-42.93-76.38,43.93c-2.5,1.5-6.49-.5-6.49-3.49v-104.83c0-3,1.5-5.99,4.49-7.49l90.86-52.42c2.5-1.5,6.49.5,6.49,3.49v88.36l74.88,42.93V112.32L232.13,0v86.36Z"/>
    </g>
    <circle class="j" cx="213.66" cy="241.12" r="107.26"/>
  </g>
  <g id="c" data-name="Hands">
    <g id="d" data-name="Right Hand">
      <path id="e" data-name="Right Hand" class="k" d="m287.3,293.53c-4.83-18.23-30.91-100.08-39.14-117.84-.59-1.27-1.64-2.33-2.98-2.74-3.38-1.04-5.41,1.91-5.74,4.94-.92,8.46,6.32,19.68,7.12,28.06.05.48.32,1.67-.44,1.55-1.83-4.17-3.94-8.34-6.15-12.32-4.41-7.95-9.1-17.39-13.8-24.92-1.74-2.78-4.43-6.8-8.06-3.46-3.48,3.21,1.08,12.21,2.86,15.79,3.69,7.43,8.46,14.52,12.6,21.67.42.72,1.02,1.5.98,2.36-5.56-5.94-10.83-12.16-16.45-18.04-3.91-4.09-10.95-12.02-15.14-15.13-3.45-2.56-7.05-.56-7.15,3.59-.08,2.97,5.76,10.55,7.81,13.12,5.58,7.03,12.24,13.18,18.03,20.02-6.08-.15-13.82,4.16-18.25,8.23-3.86,3.54-11.54,13.8-3.66,17.03,5.6,2.29,6.9-1.94,9.88-5.01,20.43-20.99,43.58,5.57,28.93,22.26-1.96,2.23-5.58,4.08-6.25,5.18-2.48,4.08-6.45,7.61-7.76,8.88l-5.12,3.98c11.46,3.19,21.46.49,30.25,10.16,9.79,10.77,9.5,22.85,3.96,33.19-5.75,10.73-13.51,17.17-28.14,20.15,25.69-3.23,48.15-16.86,63.03-36.54l-1.23-4.14Z"/>
      <path id="f" data-name="Right Hand Thumb" class="k" d="m202.67,256.44c4.47.01,7.9-2.06,8.56-3.08.38-.46-.02-.8-.15-1.21-.46-1.42-3.3-6.74-4.32-7.72-1.53-1.48-3.18-1.64-5.25-1.22-6.49,1.34-4.81,13.21,1.17,13.22Z"/>
    </g>
    <g id="g" data-name="Left Hand">
      <path id="h" data-name="Left Hand Thumb" class="k" d="m224.66,225.79c-4.47-.01-7.9,2.06-8.56,3.08-.38.46.02.8.15,1.21.46,1.42,3.3,6.74,4.32,7.72,1.53,1.48,3.18,1.64,5.25,1.22,6.49-1.34,4.81-13.21-1.17-13.22Z"/>
      <path id="i" data-name="Left Hand" class="k" d="m205.68,272.07c6.08.15,13.82-4.16,18.25-8.23,3.86-3.54,11.54-13.8,3.66-17.03-5.6-2.29-6.9,1.94-9.88,5.01-20.43,20.99-43.58-5.57-28.93-22.26,1.96-2.23,5.58-4.08,6.25-5.18,2.48-4.08,6.45-7.61,7.76-8.88l5.12-3.98c-11.46-3.19-21.46-.49-30.25-10.16-9.79-10.77-9.5-22.85-3.96-33.19,5.75-10.73,13.51-17.17,28.14-20.15-25.69,3.23-48.15,16.86-63.03,36.54l1.23,4.14c4.83,18.23,30.91,100.08,39.14,117.84.59,1.27,1.64,2.33,2.98,2.74,3.38,1.04,5.41-1.91,5.74-4.94.92-8.46-6.32-19.68-7.12-28.06-.05-.48-.32-1.67.44-1.55,1.83,4.17,3.94,8.34,6.15,12.32,4.41,7.95,9.1,17.39,13.8,24.92,1.74,2.78,4.43,6.8,8.06,3.46,3.48-3.21-1.08-12.21-2.86-15.79-3.69-7.43-8.46-14.52-12.6-21.67-.42-.72-1.02-1.5-.98-2.36,5.56,5.94,10.83,12.16,16.45,18.04,3.91,4.09,10.95,12.02,15.14,15.13,3.45,2.56,7.05.56,7.15-3.59.08-2.97-5.76-10.55-7.81-13.12-5.58-7.03-12.24-13.18-18.03-20.02Z"/>
    </g>
  </g>
</svg>